<svg width="20" height="20" viewBox="0 0 20 20" fill="none" xmlns="http://www.w3.org/2000/svg">
<mask id="mask0_2084_1813" style="mask-type:alpha" maskUnits="userSpaceOnUse" x="0" y="0" width="20" height="20">
<rect width="20" height="20" fill="#D9D9D9"/>
</mask>
<g mask="url(#mask0_2084_1813)">
<path d="M5.83333 11.6665V9.99984H14.1667V11.6665H5.83333ZM5.83333 14.9998V13.3332H11.6667V14.9998H5.83333ZM4.16667 18.3332C3.70833 18.3332 3.31597 18.17 2.98958 17.8436C2.66319 17.5172 2.5 17.1248 2.5 16.6665V4.99984C2.5 4.5415 2.66319 4.14914 2.98958 3.82275C3.31597 3.49637 3.70833 3.33317 4.16667 3.33317H5V1.6665H6.66667V3.33317H13.3333V1.6665H15V3.33317H15.8333C16.2917 3.33317 16.684 3.49637 17.0104 3.82275C17.3368 4.14914 17.5 4.5415 17.5 4.99984V16.6665C17.5 17.1248 17.3368 17.5172 17.0104 17.8436C16.684 18.17 16.2917 18.3332 15.8333 18.3332H4.16667ZM4.16667 16.6665H15.8333V8.33317H4.16667V16.6665Z" fill="white"/>
</g>
</svg>
