<svg width="20" height="21" viewBox="0 0 20 21" fill="none" xmlns="http://www.w3.org/2000/svg">
<mask id="mask0_2084_1830" style="mask-type:alpha" maskUnits="userSpaceOnUse" x="0" y="0" width="20" height="21">
<rect y="0.5" width="20" height="20" fill="#D9D9D9"/>
</mask>
<g mask="url(#mask0_2084_1830)">
<path d="M5.83333 12.1665V10.4998H14.1667V12.1665H5.83333ZM5.83333 15.4998V13.8332H11.6667V15.4998H5.83333ZM4.16667 18.8332C3.70833 18.8332 3.31597 18.67 2.98958 18.3436C2.66319 18.0172 2.5 17.6248 2.5 17.1665V5.49984C2.5 5.0415 2.66319 4.64914 2.98958 4.32275C3.31597 3.99637 3.70833 3.83317 4.16667 3.83317H5V2.1665H6.66667V3.83317H13.3333V2.1665H15V3.83317H15.8333C16.2917 3.83317 16.684 3.99637 17.0104 4.32275C17.3368 4.64914 17.5 5.0415 17.5 5.49984V17.1665C17.5 17.6248 17.3368 18.0172 17.0104 18.3436C16.684 18.67 16.2917 18.8332 15.8333 18.8332H4.16667ZM4.16667 17.1665H15.8333V8.83317H4.16667V17.1665Z" fill="#1B4965"/>
</g>
</svg>
