<svg width="32" height="32" viewBox="0 0 32 32" fill="none" xmlns="http://www.w3.org/2000/svg">
<path fill-rule="evenodd" clip-rule="evenodd" d="M12.8 6.39995C9.26537 6.39995 6.4 9.26533 6.4 12.8C6.4 16.3346 9.26537 19.2 12.8 19.2C16.3346 19.2 19.2 16.3346 19.2 12.8C19.2 9.26533 16.3346 6.39995 12.8 6.39995ZM3.2 12.8C3.2 7.49802 7.49806 3.19995 12.8 3.19995C18.1019 3.19995 22.4 7.49802 22.4 12.8C22.4 14.8733 21.7427 16.7931 20.6252 18.3624L28.3314 26.0686C28.9562 26.6934 28.9562 27.7065 28.3314 28.3313C27.7065 28.9562 26.6935 28.9562 26.0686 28.3313L18.3625 20.6251C16.7931 21.7427 14.8733 22.4 12.8 22.4C7.49806 22.4 3.2 18.1019 3.2 12.8Z" fill="#BABEC1"/>
</svg>
