<svg width="32" height="32" viewBox="0 0 32 32" fill="none" xmlns="http://www.w3.org/2000/svg">
<path fill-rule="evenodd" clip-rule="evenodd" d="M14.4 3.2002C13.794 3.2002 13.2399 3.5426 12.9689 4.08465L11.8111 6.4002H6.39999C5.51633 6.4002 4.79999 7.11654 4.79999 8.0002C4.79999 8.88385 5.51633 9.6002 6.39999 9.6002L6.39999 25.6002C6.39999 27.3675 7.83268 28.8002 9.59999 28.8002H22.4C24.1673 28.8002 25.6 27.3675 25.6 25.6002V9.6002C26.4836 9.6002 27.2 8.88385 27.2 8.0002C27.2 7.11654 26.4836 6.4002 25.6 6.4002H20.1888L19.0311 4.08465C18.76 3.5426 18.206 3.2002 17.6 3.2002H14.4ZM11.2 12.8002C11.2 11.9165 11.9163 11.2002 12.8 11.2002C13.6836 11.2002 14.4 11.9165 14.4 12.8002V22.4002C14.4 23.2839 13.6836 24.0002 12.8 24.0002C11.9163 24.0002 11.2 23.2839 11.2 22.4002V12.8002ZM19.2 11.2002C18.3163 11.2002 17.6 11.9165 17.6 12.8002V22.4002C17.6 23.2839 18.3163 24.0002 19.2 24.0002C20.0836 24.0002 20.8 23.2839 20.8 22.4002V12.8002C20.8 11.9165 20.0836 11.2002 19.2 11.2002Z" fill="#CB3A31"/>
</svg>
