<svg width="81" height="80" viewBox="0 0 81 80" fill="none" xmlns="http://www.w3.org/2000/svg">
<path fill-rule="evenodd" clip-rule="evenodd" d="M12.5 68C12.5 65.7909 14.2909 64 16.5 64H64.5C66.7091 64 68.5 65.7909 68.5 68C68.5 70.2091 66.7091 72 64.5 72H16.5C14.2909 72 12.5 70.2091 12.5 68ZM25.6716 26.8284C24.1095 25.2663 24.1095 22.7337 25.6716 21.1716L37.6716 9.17157C38.4217 8.42143 39.4391 8 40.5 8C41.5609 8 42.5783 8.42143 43.3284 9.17157L55.3284 21.1716C56.8905 22.7337 56.8905 25.2663 55.3284 26.8284C53.7663 28.3905 51.2337 28.3905 49.6716 26.8284L44.5 21.6569L44.5 52C44.5 54.2091 42.7091 56 40.5 56C38.2909 56 36.5 54.2091 36.5 52L36.5 21.6569L31.3284 26.8284C29.7663 28.3905 27.2337 28.3905 25.6716 26.8284Z" fill="#E4E8EC"/>
</svg>
